<svg width="1760" height="920" viewBox="0 0 1760 920" fill="none" xmlns="http://www.w3.org/2000/svg">
<path d="M1756.51 0V0.25H1759.75V3.48438H1760V24.3936H1759.75V31.3633H1760V52.2725H1759.75V59.2422H1760V80.1514H1759.75V87.1201H1760V108.029H1759.75V114.999H1760V135.908H1759.75V142.878H1760V163.787H1759.75V170.757H1760V191.666H1759.75V198.636H1760V219.545H1759.75V226.515H1760V247.424H1759.75V254.394H1760V275.303H1759.75V282.272H1760V303.182H1759.75V310.151H1760V331.061H1759.75V338.03H1760V358.939H1759.75V365.909H1760V386.818H1759.75V393.788H1760V414.697H1759.75V421.667H1760V442.576H1759.75V449.546H1760V470.455H1759.75V477.424H1760V498.333H1759.75V505.303H1760V526.212H1759.75V533.182H1760V554.091H1759.75V561.061H1760V581.97H1759.75V588.939H1760V609.849H1759.75V616.818H1760V637.728H1759.75V644.697H1760V665.606H1759.75V672.576H1760V693.484H1759.75V700.454H1760V721.363H1759.75V728.333H1760V749.242H1759.75V756.212H1760V777.121H1759.75V784.091H1760V805H1759.75V811.97H1760V832.879H1759.75V839.849H1760V860.758H1759.75V867.728H1760V888.637H1759.75V895.606H1760V916.516H1759.75V919.75H1756.51V920H1735.56V919.75H1728.57V920H1707.62V919.75H1700.64V920H1679.68V919.75H1672.7V920H1651.75V919.75H1644.76V920H1623.81V919.75H1616.83V920H1595.87V919.75H1588.89V920H1567.94V919.75H1560.95V920H1540V919.75H1533.02V920H1512.06V919.75H1505.08V920H1484.13V919.75H1477.14V920H1456.19V919.75H1449.21V920H1428.25V919.75H1421.27V920H1400.32V919.75H1393.33V920H1372.38V919.75H1365.4V920H1344.45V919.75H1337.46V920H1316.51V919.75H1309.52V920H1288.57V919.75H1281.59V920H1260.64V919.75H1253.65V920H1232.7V919.75H1225.71V920H1204.76V919.75H1197.78V920H1176.83V919.75H1169.84V920H1148.89V919.75H1141.91V920H1120.95V919.75H1113.97V920H1093.02V919.75H1086.03V920H1065.08V919.75H1058.1V920H1037.14V919.75H1030.16V920H1009.21V919.75H1002.22V920H981.271V919.75H974.286V920H953.334V919.75H946.35V920H925.397V919.75H918.413V920H897.461V919.75H890.477V920H869.524V919.75H862.54V920H841.588V919.75H834.604V920H813.651V919.75H806.667V920H785.715V919.75H778.73V920H757.778V919.75H750.794V920H729.842V919.75H722.857V920H701.905V919.75H694.921V920H673.969V919.75H666.984V920H646.032V919.75H639.048V920H618.096V919.75H611.111V920H590.159V919.75H583.175V920H562.223V919.75H555.238V920H534.286V919.75H527.302V920H506.35V919.75H499.365V920H478.413V919.75H471.429V920H450.477V919.75H443.492V920H422.54V919.75H415.556V920H394.604V919.75H387.619V920H366.667V919.75H359.683V920H338.73V919.75H331.746V920H310.794V919.75H303.81V920H282.857V919.75H275.873V920H254.921V919.75H247.937V920H226.984V919.75H220V920H199.048V919.75H192.063V920H171.111V919.75H164.127V920H143.175V919.75H136.19V920H115.238V919.75H108.254V920H87.3018V919.75H80.3174V920H59.3652V919.75H52.3809V920H31.4287V919.75H24.4443V920H3.49219V919.75H0.25V916.516H0V895.606H0.25V888.637H0V867.728H0.25V860.758H0V839.849H0.25V832.88H0V811.971H0.25V805.001H0V784.092H0.25V777.122H0V756.213H0.25V749.243H0V728.334H0.25V721.364H0V700.455H0.25V693.485H0V672.576H0.25V665.606H0V644.697H0.25V637.728H0V616.818H0.25V609.849H0V588.939H0.25V581.97H0V561.061H0.25V554.091H0V533.182H0.25V526.212H0V505.303H0.25V498.333H0V477.424H0.25V470.454H0V449.545H0.25V442.576H0V421.667H0.25V414.697H0V393.788H0.25V386.818H0V365.909H0.25V358.939H0V338.03H0.25V331.061H0V310.151H0.25V303.182H0V282.272H0.25V275.303H0V254.394H0.25V247.424H0V226.516H0.25V219.546H0V198.637H0.25V191.667H0V170.758H0.25V163.788H0V142.879H0.25V135.909H0V115H0.25V108.03H0V87.1211H0.25V80.1514H0V59.2422H0.25V52.2725H0V31.3633H0.25V24.3936H0V3.48438H0.25V0.25H3.49121V0H24.4434V0.25H31.4277V0H52.3799V0.25H59.3643V0H80.3164V0.25H87.3008V0H108.253V0.25H115.237V0H136.189V0.25H143.174V0H164.126V0.25H171.11V0H192.062V0.25H199.047V0H219.999V0.25H226.983V0H247.936V0.25H254.92V0H275.872V0.25H282.856V0H303.809V0.25H310.793V0H331.745V0.25H338.729V0H359.682V0.25H366.666V0H387.618V0.25H394.603V0H415.555V0.25H422.539V0H443.491V0.25H450.476V0H471.428V0.25H478.412V0H499.364V0.25H506.349V0H527.301V0.25H534.285V0H555.237V0.25H562.222V0H583.174V0.25H590.158V0H611.11V0.25H618.095V0H639.047V0.25H646.031V0H666.983V0.25H673.968V0H694.92V0.25H701.904V0H722.856V0.25H729.841V0H750.793V0.25H757.777V0H778.729V0.25H785.714V0H806.666V0.25H813.65V0H834.603V0.25H841.587V0H862.539V0.25H869.523V0H890.476V0.25H897.46V0H918.412V0.25H925.396V0H946.349V0.25H953.333V0H974.285V0.25H981.27V0H1002.22V0.25H1009.21V0H1030.16V0.25H1037.14V0H1058.09V0.25H1065.08V0H1086.03V0.25H1093.02V0H1113.97V0.25H1120.95V0H1141.9V0.25H1148.89V0H1169.84V0.25H1176.83V0H1197.78V0.25H1204.76V0H1225.71V0.25H1232.7V0H1253.65V0.25H1260.63V0H1281.59V0.25H1288.57V0H1309.52V0.25H1316.51V0H1337.46V0.25H1344.44V0H1365.4V0.25H1372.38V0H1393.33V0.25H1400.32V0H1421.27V0.25H1428.25V0H1449.21V0.25H1456.19V0H1477.14V0.25H1484.13V0H1505.08V0.25H1512.06V0H1533.02V0.25H1540V0H1560.95V0.25H1567.94V0H1588.89V0.25H1595.87V0H1616.83V0.25H1623.81V0H1644.76V0.25H1651.75V0H1672.7V0.25H1679.68V0H1700.63V0.25H1707.62V0H1728.57V0.25H1735.56V0H1756.51Z" stroke="black" stroke-width="0.5" stroke-dasharray="7 21"/>
</svg>
