<svg width="80" height="80" viewBox="0 0 80 80" fill="none" xmlns="http://www.w3.org/2000/svg">
<g id="Insights Icon 01">
<g id="Group 44">
<g id="Group 31">
<path id="Vector" d="M38.8779 19H38.6225C34.7223 19 31.5605 22.1617 31.5605 26.062V26.0685C31.5605 29.9687 34.7223 33.1305 38.6225 33.1305H38.8779C42.7781 33.1305 45.9398 29.9687 45.9398 26.0685V26.062C45.9398 22.1617 42.7781 19 38.8779 19Z" stroke="black" stroke-width="3" stroke-miterlimit="10"/>
<path id="Vector_2" d="M43.8311 31.0547L50.1003 37.2126" stroke="black" stroke-width="3" stroke-miterlimit="10"/>
</g>
<path id="Vector 15" d="M46.8535 61.0006V46.0006M33.207 61.0006V38.9999M19.5605 61.0006V51.9999M60.5 61.0006V31.5" stroke="black" stroke-width="4"/>
<path id="Subtract" d="M21.5 58.1201L20.5605 59.0605L18.4395 56.9395L21.5 53.8789V58.1201ZM46.7529 50.708L48.5 48.9609V53.2041L47.2471 54.457L46.25 53.8818L39.5 49.9844V46.5205L46.7529 50.708ZM33.75 43.2012L35 43.9219V47.3857L33.2461 46.374L26 53.6201V49.3789L31.9395 43.4395L32.7529 42.625L33.75 43.2012ZM61.6436 40.0605L53.5 48.2041V43.9609L59.5225 37.9395L61.6436 40.0605Z" fill="black"/>
</g>
</g>
</svg>
